<svg width="20" height="19" viewBox="0 0 20 19" fill="none" xmlns="http://www.w3.org/2000/svg">
<path d="M19.0799 6.23998L17.5499 1.67998C17.3099 0.869984 16.6799 0.389984 15.8699 0.389984H3.38994C2.57994 0.389984 1.94994 0.869984 1.70994 1.58998L0.0299414 6.14998C-0.0600586 6.38998 -0.0600586 6.62998 -0.0600586 6.77998V16.95C-0.0600586 18 0.749941 18.78 1.76994 18.78H17.3699C18.3299 18.78 19.1999 17.97 19.1999 16.95V6.80998C19.1699 6.62998 19.1699 6.38998 19.0799 6.23998ZM16.0499 2.15998L17.3099 5.99998H10.3499V2.00998H15.8699C15.9599 2.00998 16.0499 2.06998 16.0499 2.15998ZM3.23994 2.15998C3.23994 2.06998 3.32994 2.00998 3.38994 2.00998H8.75994V5.99998H1.79994L3.23994 2.15998ZM17.3099 17.19H1.79994C1.64994 17.19 1.55994 17.1 1.55994 16.95V7.58998H17.5499V16.95C17.5499 17.13 17.4899 17.19 17.3099 17.19Z" fill="#3D3D3D"/>
</svg>
